<mxfile host="app.diagrams.net" agent="Mozilla/5.0 (Windows NT 10.0; Win64; x64) AppleWebKit/537.36 (KHTML, like Gecko) Chrome/133.0.0.0 Safari/537.36" version="26.0.4">
  <diagram name="Page-1" id="Nz5jV1JtQT5nZHewl7tD">
    <mxGraphModel dx="1715" dy="983" grid="1" gridSize="10" guides="1" tooltips="1" connect="1" arrows="1" fold="1" page="1" pageScale="1" pageWidth="827" pageHeight="1169" background="#0D1117" math="0" shadow="0">
      <root>
        <mxCell id="0" />
        <mxCell id="1" parent="0" />
        <mxCell id="U1p5XvLHtuRPdXZtWojU-6" style="edgeStyle=entityRelationEdgeStyle;rounded=1;hachureGap=4;orthogonalLoop=1;jettySize=auto;html=1;exitX=1;exitY=1;exitDx=0;exitDy=0;entryX=0;entryY=0.5;entryDx=0;entryDy=0;fontFamily=Architects Daughter;fontSource=https%3A%2F%2Ffonts.googleapis.com%2Fcss%3Ffamily%3DArchitects%2BDaughter;labelBackgroundColor=none;strokeColor=#E07A5F;fontColor=default;" edge="1" parent="1" source="U1p5XvLHtuRPdXZtWojU-1" target="U1p5XvLHtuRPdXZtWojU-3">
          <mxGeometry relative="1" as="geometry" />
        </mxCell>
        <mxCell id="U1p5XvLHtuRPdXZtWojU-8" style="edgeStyle=entityRelationEdgeStyle;rounded=1;hachureGap=4;orthogonalLoop=1;jettySize=auto;html=1;exitX=0;exitY=1;exitDx=0;exitDy=0;entryX=1;entryY=0.5;entryDx=0;entryDy=0;fontFamily=Architects Daughter;fontSource=https%3A%2F%2Ffonts.googleapis.com%2Fcss%3Ffamily%3DArchitects%2BDaughter;labelBackgroundColor=none;strokeColor=#E07A5F;fontColor=default;" edge="1" parent="1" source="U1p5XvLHtuRPdXZtWojU-1" target="U1p5XvLHtuRPdXZtWojU-2">
          <mxGeometry relative="1" as="geometry" />
        </mxCell>
        <mxCell id="U1p5XvLHtuRPdXZtWojU-1" value="INITIAL STATE" style="ellipse;whiteSpace=wrap;html=1;aspect=fixed;rounded=1;labelBackgroundColor=none;fillColor=#F2CC8F;strokeColor=#E07A5F;fontColor=#393C56;" vertex="1" parent="1">
          <mxGeometry x="340" y="190" width="150" height="150" as="geometry" />
        </mxCell>
        <mxCell id="U1p5XvLHtuRPdXZtWojU-2" value="STRING STATE" style="ellipse;whiteSpace=wrap;html=1;aspect=fixed;rounded=1;labelBackgroundColor=none;fillColor=#F2CC8F;strokeColor=#E07A5F;fontColor=#393C56;" vertex="1" parent="1">
          <mxGeometry x="150" y="380" width="150" height="150" as="geometry" />
        </mxCell>
        <mxCell id="U1p5XvLHtuRPdXZtWojU-7" style="edgeStyle=orthogonalEdgeStyle;rounded=1;hachureGap=4;orthogonalLoop=1;jettySize=auto;html=1;exitX=0.5;exitY=1;exitDx=0;exitDy=0;fontFamily=Architects Daughter;fontSource=https%3A%2F%2Ffonts.googleapis.com%2Fcss%3Ffamily%3DArchitects%2BDaughter;labelBackgroundColor=none;strokeColor=#E07A5F;fontColor=default;" edge="1" parent="1" source="U1p5XvLHtuRPdXZtWojU-3" target="U1p5XvLHtuRPdXZtWojU-4">
          <mxGeometry relative="1" as="geometry" />
        </mxCell>
        <mxCell id="U1p5XvLHtuRPdXZtWojU-3" value="COMMENT STATE" style="ellipse;whiteSpace=wrap;html=1;aspect=fixed;rounded=1;labelBackgroundColor=none;fillColor=#F2CC8F;strokeColor=#E07A5F;fontColor=#393C56;" vertex="1" parent="1">
          <mxGeometry x="530" y="380" width="150" height="150" as="geometry" />
        </mxCell>
        <mxCell id="U1p5XvLHtuRPdXZtWojU-4" value="NESTED COMMENT&lt;div&gt;STATE&lt;/div&gt;" style="ellipse;whiteSpace=wrap;html=1;aspect=fixed;rounded=1;labelBackgroundColor=none;fillColor=#F2CC8F;strokeColor=#E07A5F;fontColor=#393C56;" vertex="1" parent="1">
          <mxGeometry x="370" y="600" width="150" height="150" as="geometry" />
        </mxCell>
        <mxCell id="U1p5XvLHtuRPdXZtWojU-10" style="edgeStyle=orthogonalEdgeStyle;rounded=1;orthogonalLoop=1;jettySize=auto;html=1;entryX=0;entryY=0.5;entryDx=0;entryDy=0;labelBackgroundColor=none;strokeColor=#E07A5F;fontColor=default;" edge="1" parent="1" source="U1p5XvLHtuRPdXZtWojU-9" target="U1p5XvLHtuRPdXZtWojU-2">
          <mxGeometry relative="1" as="geometry" />
        </mxCell>
        <mxCell id="U1p5XvLHtuRPdXZtWojU-9" value="STRINGS" style="ellipse;whiteSpace=wrap;html=1;rounded=1;labelBackgroundColor=none;fillColor=#F2CC8F;strokeColor=#E07A5F;fontColor=#393C56;" vertex="1" parent="1">
          <mxGeometry x="30" y="310" width="120" height="80" as="geometry" />
        </mxCell>
        <mxCell id="U1p5XvLHtuRPdXZtWojU-22" style="edgeStyle=orthogonalEdgeStyle;rounded=1;orthogonalLoop=1;jettySize=auto;html=1;exitX=0.5;exitY=1;exitDx=0;exitDy=0;entryX=0;entryY=0.5;entryDx=0;entryDy=0;labelBackgroundColor=none;strokeColor=#E07A5F;fontColor=default;" edge="1" parent="1" source="U1p5XvLHtuRPdXZtWojU-11" target="U1p5XvLHtuRPdXZtWojU-1">
          <mxGeometry relative="1" as="geometry" />
        </mxCell>
        <mxCell id="U1p5XvLHtuRPdXZtWojU-11" value="KEYWORDS" style="ellipse;whiteSpace=wrap;html=1;rounded=1;labelBackgroundColor=none;fillColor=#F2CC8F;strokeColor=#E07A5F;fontColor=#393C56;" vertex="1" parent="1">
          <mxGeometry x="140" y="160" width="120" height="80" as="geometry" />
        </mxCell>
        <mxCell id="U1p5XvLHtuRPdXZtWojU-21" style="edgeStyle=orthogonalEdgeStyle;rounded=1;orthogonalLoop=1;jettySize=auto;html=1;exitX=0.5;exitY=1;exitDx=0;exitDy=0;entryX=0;entryY=0;entryDx=0;entryDy=0;labelBackgroundColor=none;strokeColor=#E07A5F;fontColor=default;" edge="1" parent="1" source="U1p5XvLHtuRPdXZtWojU-12" target="U1p5XvLHtuRPdXZtWojU-1">
          <mxGeometry relative="1" as="geometry" />
        </mxCell>
        <mxCell id="U1p5XvLHtuRPdXZtWojU-12" value="IDENTIFIERS" style="ellipse;whiteSpace=wrap;html=1;rounded=1;labelBackgroundColor=none;fillColor=#F2CC8F;strokeColor=#E07A5F;fontColor=#393C56;" vertex="1" parent="1">
          <mxGeometry x="270" y="110" width="120" height="80" as="geometry" />
        </mxCell>
        <mxCell id="U1p5XvLHtuRPdXZtWojU-20" style="edgeStyle=orthogonalEdgeStyle;rounded=1;orthogonalLoop=1;jettySize=auto;html=1;exitX=0.5;exitY=1;exitDx=0;exitDy=0;entryX=1;entryY=0;entryDx=0;entryDy=0;labelBackgroundColor=none;strokeColor=#E07A5F;fontColor=default;" edge="1" parent="1" source="U1p5XvLHtuRPdXZtWojU-13" target="U1p5XvLHtuRPdXZtWojU-1">
          <mxGeometry relative="1" as="geometry" />
        </mxCell>
        <mxCell id="U1p5XvLHtuRPdXZtWojU-13" value="OPERATORS" style="ellipse;whiteSpace=wrap;html=1;rounded=1;labelBackgroundColor=none;fillColor=#F2CC8F;strokeColor=#E07A5F;fontColor=#393C56;" vertex="1" parent="1">
          <mxGeometry x="440" y="110" width="120" height="80" as="geometry" />
        </mxCell>
        <mxCell id="U1p5XvLHtuRPdXZtWojU-23" style="edgeStyle=orthogonalEdgeStyle;rounded=1;orthogonalLoop=1;jettySize=auto;html=1;exitX=0.5;exitY=1;exitDx=0;exitDy=0;entryX=1;entryY=0.5;entryDx=0;entryDy=0;labelBackgroundColor=none;strokeColor=#E07A5F;fontColor=default;" edge="1" parent="1" source="U1p5XvLHtuRPdXZtWojU-14" target="U1p5XvLHtuRPdXZtWojU-1">
          <mxGeometry relative="1" as="geometry" />
        </mxCell>
        <mxCell id="U1p5XvLHtuRPdXZtWojU-14" value="PUNCTUATION" style="ellipse;whiteSpace=wrap;html=1;rounded=1;labelBackgroundColor=none;fillColor=#F2CC8F;strokeColor=#E07A5F;fontColor=#393C56;" vertex="1" parent="1">
          <mxGeometry x="580" y="150" width="120" height="80" as="geometry" />
        </mxCell>
        <mxCell id="U1p5XvLHtuRPdXZtWojU-18" style="edgeStyle=orthogonalEdgeStyle;rounded=1;orthogonalLoop=1;jettySize=auto;html=1;exitX=0.5;exitY=1;exitDx=0;exitDy=0;entryX=1;entryY=0.5;entryDx=0;entryDy=0;labelBackgroundColor=none;strokeColor=#E07A5F;fontColor=default;" edge="1" parent="1" source="U1p5XvLHtuRPdXZtWojU-15" target="U1p5XvLHtuRPdXZtWojU-3">
          <mxGeometry relative="1" as="geometry" />
        </mxCell>
        <mxCell id="U1p5XvLHtuRPdXZtWojU-15" value="COMMENTS" style="ellipse;whiteSpace=wrap;html=1;rounded=1;labelBackgroundColor=none;fillColor=#F2CC8F;strokeColor=#E07A5F;fontColor=#393C56;" vertex="1" parent="1">
          <mxGeometry x="680" y="300" width="120" height="80" as="geometry" />
        </mxCell>
        <mxCell id="U1p5XvLHtuRPdXZtWojU-17" style="edgeStyle=orthogonalEdgeStyle;rounded=1;orthogonalLoop=1;jettySize=auto;html=1;labelBackgroundColor=none;strokeColor=#E07A5F;fontColor=default;" edge="1" parent="1" source="U1p5XvLHtuRPdXZtWojU-16" target="U1p5XvLHtuRPdXZtWojU-4">
          <mxGeometry relative="1" as="geometry" />
        </mxCell>
        <mxCell id="U1p5XvLHtuRPdXZtWojU-16" value="NESTED-COMMENT" style="ellipse;whiteSpace=wrap;html=1;rounded=1;labelBackgroundColor=none;fillColor=#F2CC8F;strokeColor=#E07A5F;fontColor=#393C56;" vertex="1" parent="1">
          <mxGeometry x="600" y="635" width="120" height="80" as="geometry" />
        </mxCell>
        <mxCell id="U1p5XvLHtuRPdXZtWojU-25" style="edgeStyle=orthogonalEdgeStyle;rounded=1;orthogonalLoop=1;jettySize=auto;html=1;exitX=0.5;exitY=1;exitDx=0;exitDy=0;entryX=0.5;entryY=0;entryDx=0;entryDy=0;labelBackgroundColor=none;strokeColor=#E07A5F;fontColor=default;" edge="1" parent="1" source="U1p5XvLHtuRPdXZtWojU-24" target="U1p5XvLHtuRPdXZtWojU-1">
          <mxGeometry relative="1" as="geometry" />
        </mxCell>
        <mxCell id="U1p5XvLHtuRPdXZtWojU-24" value="INTCONST&lt;div&gt;REALCONST&lt;/div&gt;" style="ellipse;whiteSpace=wrap;html=1;rounded=1;labelBackgroundColor=none;fillColor=#F2CC8F;strokeColor=#E07A5F;fontColor=#393C56;" vertex="1" parent="1">
          <mxGeometry x="354" y="10" width="120" height="80" as="geometry" />
        </mxCell>
      </root>
    </mxGraphModel>
  </diagram>
</mxfile>
